<?xml version="1.0" standalone="no"?>
<!DOCTYPE svg PUBLIC "-//W3C//DTD SVG 20010904//EN"
 "http://www.w3.org/TR/2001/REC-SVG-20010904/DTD/svg10.dtd">
<svg version="1.0" xmlns="http://www.w3.org/2000/svg"
 width="501.000000pt" height="306.000000pt" viewBox="0 0 501.000000 306.000000"
 preserveAspectRatio="xMidYMid meet">

<g transform="translate(0.000000,306.000000) scale(0.100000,-0.100000)"
fill="#000000" stroke="none">
<path d="M4890 2780 l0 -281 58 3 57 3 0 275 0 275 -57 3 -58 3 0 -281z"/>
<path d="M1000 2275 l0 -485 60 0 60 0 0 234 0 235 -47 3 -48 3 -3 248 c-1
153 -6 247 -12 247 -6 0 -10 -174 -10 -485z"/>
<path d="M2493 2522 l237 -237 0 -148 0 -147 55 0 55 0 0 147 0 148 -237 237
-238 238 -55 0 -55 0 238 -238z"/>
<path d="M4220 1250 l0 -1250 60 0 60 0 0 829 0 830 -52 3 -53 3 1 38 c0 20 1
143 2 272 l2 235 50 0 50 0 0 145 0 145 -60 0 -60 0 0 -1250z"/>
<path d="M4890 1940 l0 -270 60 0 60 0 0 270 0 270 -60 0 -60 0 0 -270z"/>
<path d="M2331 1720 c30 -33 147 -156 262 -273 l207 -214 0 -342 0 -342 -269
-272 -270 -272 54 -3 54 -3 275 277 276 277 0 335 0 335 -47 51 c-25 28 -103
110 -172 181 -69 72 -168 174 -219 228 l-92 97 -56 0 -57 0 54 -60z"/>
<path d="M1057 824 c-4 -4 -7 -76 -7 -161 l0 -153 65 0 66 0 -3 158 -3 157
-55 3 c-31 2 -59 0 -63 -4z"/>
<path d="M1744 250 c0 -140 2 -198 3 -128 2 71 2 185 0 255 -1 71 -3 13 -3
-127z"/>
</g>
</svg>
